<svg width="419" height="210" viewBox="0 0 419 210" fill="none" xmlns="http://www.w3.org/2000/svg">
<path opacity="0.2" d="M419 1.83151e-05C419 27.512 413.581 54.7545 403.053 80.1722C392.524 105.59 377.093 128.685 357.639 148.139C338.185 167.593 315.09 183.024 289.672 193.553C264.254 204.081 237.012 209.5 209.5 209.5C181.988 209.5 154.746 204.081 129.328 193.553C103.91 183.024 80.815 167.593 61.3611 148.139C41.9072 128.685 26.4756 105.59 15.9472 80.1722C5.41887 54.7545 -2.40517e-06 27.5119 0 0L104.465 9.13265e-06C104.465 13.7934 107.182 27.4516 112.461 40.195C117.739 52.9384 125.476 64.5174 135.229 74.2708C144.983 84.0241 156.562 91.7609 169.305 97.0394C182.048 102.318 195.707 105.035 209.5 105.035C223.293 105.035 236.952 102.318 249.695 97.0394C262.438 91.7609 274.017 84.0241 283.771 74.2708C293.524 64.5174 301.261 52.9384 306.539 40.1951C311.818 27.4517 314.535 13.7934 314.535 1.83151e-05H419Z" fill="url(#paint0_linear_11_382)"/>
<defs>
<linearGradient id="paint0_linear_11_382" x1="209.5" y1="0" x2="209.5" y2="209.5" gradientUnits="userSpaceOnUse">
<stop stop-color="#FFCDB1"/>
<stop offset="1" stop-color="#FF5E03" stop-opacity="0"/>
</linearGradient>
</defs>
</svg>
