<svg width="44" height="61" viewBox="0 0 44 61" fill="none" xmlns="http://www.w3.org/2000/svg">
<path d="M38.8419 60.093H4.31577C3.17156 60.0917 2.07459 59.6391 1.26551 58.8344C0.456431 58.0297 0.00131358 56.9387 0 55.8007V4.29236C0.00114255 3.1543 0.456206 2.06318 1.26532 1.25846C2.07444 0.453731 3.17151 0.00113635 4.31577 0H38.8419C39.9862 0.00130645 41.0831 0.453955 41.8922 1.25865C42.7013 2.06334 43.1564 3.15436 43.1577 4.29236V39.958L32.3683 34.5925L21.5789 39.958V4.29236H4.31577V55.8007H38.8419V47.2159H43.1577V55.8007C43.1562 56.9386 42.701 58.0295 41.892 58.8341C41.0829 59.6388 39.9861 60.0915 38.8419 60.093ZM32.3683 29.7928L38.8419 33.0121V4.29236H25.8946V33.0121L32.3683 29.7928Z" fill="#FFB58B"/>
<path d="M25.9493 4.37036H21.5789V39.8799L32.5049 34.69L38.7873 37.6947V33.0511L32.5049 29.7733L25.9493 33.0511V4.37036Z" fill="#DA6625"/>
</svg>
