<svg width="67" height="49" viewBox="0 0 67 49" fill="none" xmlns="http://www.w3.org/2000/svg">
<path d="M65.5155 40.6148H65.1528V1.20886C65.1528 0.541223 64.6116 0 63.944 0H2.78027C2.11263 0 1.57141 0.541223 1.57141 1.20886V40.6147H1.20886C0.541223 40.6147 0 41.1559 0 41.8235V47.3958C0 48.0634 0.541223 48.6047 1.20886 48.6047H65.5155C66.1831 48.6047 66.7243 48.0634 66.7243 47.3958V41.8235C66.7243 41.156 66.1831 40.6148 65.5155 40.6148ZM3.98913 2.41759H62.7352V40.6145H21.6372V39.0023H59.914C60.5817 39.0023 61.1229 38.4611 61.1229 37.7935V5.23904C61.1229 4.5714 60.5817 4.03018 59.914 4.03018H6.80927C6.14164 4.03018 5.60041 4.5714 5.60041 5.23904V37.7937C5.60041 38.4614 6.14164 39.0026 6.80927 39.0026H9.54927V40.6148H3.98913V2.41759ZM10.7581 34.7205C10.0905 34.7205 9.54927 35.2617 9.54927 35.9294V36.5848H8.01813V6.44789H58.7053V36.5849H21.6372V35.9295C21.6372 35.2617 21.096 34.7205 20.4283 34.7205H10.7581ZM19.2195 37.1382V40.6147H11.967V37.1382H19.2195ZM64.3066 46.1871H2.41772V43.0325H64.3068V46.1871H64.3066Z" fill="#FFB58B"/>
<path d="M8.00692 6.45346L8.04862 36.5211H9.54992V38.9816H6.63073C5.89676 38.9816 5.62987 38.3421 5.58816 38.0224V5.20238C5.58816 4.20152 6.56123 4.0069 7.04776 4.03471H59.8434C60.8109 4.03471 61.1362 4.81316 61.1779 5.20238V37.6471C61.1779 38.5812 60.3438 38.926 59.9268 38.9816L21.6437 38.9399V36.6045H58.7174V6.45346H8.00692Z" fill="#DA6625"/>
</svg>
