<svg width="70" height="65" viewBox="0 0 70 65" fill="none" xmlns="http://www.w3.org/2000/svg">
<path d="M69.564 24.9932C69.0414 23.954 67.9348 23.3223 66.7915 23.4217L63.316 23.6757C59.5461 10.0497 47.0672 2.6366e-09 32.2561 2.6366e-09C14.47 -0.000225549 0 14.4709 0 32.2557C0 50.0418 14.47 64.5116 32.2559 64.5116C42.5512 64.5116 52.3151 59.5308 58.3744 51.1899C59.3043 49.9067 59.0183 48.1156 57.7376 47.1832C56.4545 46.2521 54.662 46.5415 53.7321 47.8185C48.7476 54.68 40.7195 58.7774 32.2546 58.7774C17.63 58.7774 5.73375 46.88 5.73375 32.2566C5.73375 17.6332 17.6302 5.73623 32.2548 5.73623C44.0331 5.73623 54.0316 13.46 57.48 24.1038L55.6704 24.2362C54.5147 24.3197 53.5223 25.0949 53.158 26.1942C52.7924 27.2958 53.1285 28.5079 54.0045 29.266L59.2109 33.7622C59.7175 34.578 60.6132 35.1238 61.6413 35.1238C61.6952 35.1238 61.7455 35.1116 61.7982 35.1092C61.8154 35.1092 61.8289 35.1166 61.8449 35.1166C61.9137 35.1166 61.9836 35.1155 62.0547 35.1092C62.8128 35.0528 63.5169 34.6982 64.0152 34.1228L69.1688 28.1556C69.9296 27.2787 70.0841 26.0284 69.564 24.9932Z" fill="#FFB58B"/>
<path d="M17.0905 42.2491V39.4642L19.63 37.169C23.9225 33.3292 26.0081 31.1208 26.0681 28.8243C26.0681 27.2208 25.1014 25.9523 22.8319 25.9523C21.1403 25.9523 19.6582 26.7963 18.6301 27.5851L17.3298 24.2875C18.8117 23.1724 21.1083 22.2634 23.7693 22.2634C28.214 22.2634 30.6626 24.8629 30.6626 28.4305C30.6626 31.7255 28.2754 34.3571 25.4328 36.8954L23.6184 38.4068V38.4657H31.0258V42.2466H17.0905V42.2491Z" fill="#DA6625"/>
<path d="M42.0115 42.2492V37.5615H33.3049V34.5707L40.7418 22.5959H46.3655V34.1156H48.7234V37.5615H46.3655V42.2492H42.0115ZM42.0115 34.1156V29.7629C42.0115 28.5828 42.0717 27.3756 42.1624 26.1046H42.0421C41.4054 27.3756 40.8914 28.5239 40.2278 29.7629L37.5976 34.0553V34.1156H42.0115Z" fill="#DA6625"/>
</svg>
